<svg width="" height="48" viewBox="0 0 949 534" fill="none" xmlns="http://www.w3.org/2000/svg">
    <g clip-path="url(#clip0_99_18)">
        <path d="M606.651 87.5793L624.931 0H88.0547L0 421.071H448.89L424.173 534H854.165L949 87.5793H606.651Z" fill="white"/>
        <path d="M182.975 367.314C170.805 367.314 159.305 365.321 148.491 361.316C137.677 357.329 128.237 351.434 120.186 343.649C112.136 335.864 105.785 326.291 101.116 314.914C96.4477 303.537 94.1133 290.476 94.1133 275.713C94.1133 255.537 96.9111 237.148 102.524 220.564C108.137 203.979 115.947 189.767 125.954 177.908C135.961 166.067 147.959 156.89 161.965 150.394C175.954 143.898 191.282 140.649 207.915 140.649C219.141 140.649 229.783 142.609 239.876 146.544C249.951 150.48 258.774 156.185 266.344 163.713C273.913 171.223 279.938 180.469 284.401 191.434C288.864 202.398 291.095 214.996 291.095 229.208C291.095 231.374 291.026 233.917 290.889 236.822C290.752 239.743 290.546 242.716 290.271 245.758C289.996 248.8 289.722 251.791 289.464 254.695C289.19 257.599 288.864 260.074 288.452 262.102H130.828C130.691 264.01 130.588 265.831 130.52 267.584C130.451 269.355 130.417 271.176 130.417 273.067C130.417 284.306 132.047 293.879 135.291 301.802C138.535 309.724 142.758 316.186 147.976 321.204C153.177 326.223 159.03 329.832 165.518 332.066C172.007 334.3 178.563 335.417 185.189 335.417C199.659 335.417 211.296 332.908 220.085 327.907C228.873 322.906 235.567 316.135 240.167 307.593H277.295C274.995 315.997 271.201 323.851 265.932 331.155C260.662 338.459 254.002 344.801 245.952 350.145C237.902 355.49 228.564 359.701 217.956 362.743C207.349 365.785 195.677 367.314 182.975 367.314ZM254.174 233.866C254.311 233.195 254.414 231.941 254.483 230.102C254.551 228.28 254.586 226.476 254.586 224.723C254.586 217.539 253.539 210.733 251.445 204.306C249.351 197.878 246.209 192.224 242.004 187.343C237.816 182.463 232.598 178.613 226.384 175.76C220.153 172.925 212.927 171.498 204.671 171.498C196.277 171.498 188.433 172.993 181.138 175.966C173.826 178.94 167.2 183.184 161.261 188.667C155.305 194.149 150.173 200.714 145.848 208.362C141.522 216.01 138.072 224.517 135.497 233.849H254.174V233.866Z" fill="black"/>
        <path d="M390.633 367.314C379.682 367.314 369.401 365.252 359.788 361.11C350.176 356.985 341.765 351.056 334.539 343.34C327.296 335.623 321.58 326.274 317.392 315.31C313.203 304.345 311.109 292.092 311.109 278.549C311.109 265.419 312.431 252.856 315.057 240.878C317.683 228.899 321.443 217.797 326.317 207.571C331.192 197.346 337.028 188.1 343.86 179.85C350.691 171.584 358.261 164.555 366.586 158.729C374.91 152.903 383.888 148.435 393.568 145.324C403.232 142.213 413.342 140.649 423.898 140.649C431.743 140.649 439.209 141.732 446.315 143.898C453.422 146.063 459.841 149.071 465.591 152.937C471.342 156.804 476.268 161.462 480.404 166.944C484.524 172.426 487.545 178.424 489.433 184.92H492.677L519.66 57.5557H555.157L490.24 363.465H456.563L462.845 333.613H459.601C451.619 344.044 441.612 352.259 429.58 358.292C417.547 364.289 404.554 367.314 390.633 367.314ZM401.79 335.83C413.153 335.83 423.658 333.166 433.339 327.804C443.003 322.459 451.431 315.138 458.588 305.875C465.763 296.594 471.376 285.698 475.427 273.17C479.478 260.641 481.52 247.133 481.52 232.646C481.52 223.296 480.233 214.91 477.658 207.451C475.083 200.01 471.427 193.668 466.707 188.461C461.97 183.253 456.219 179.215 449.457 176.379C442.694 173.526 435.055 172.117 426.525 172.117C415.299 172.117 404.88 174.626 395.285 179.627C385.673 184.645 377.365 191.606 370.327 200.542C363.29 209.479 357.746 220.151 353.695 232.525C349.644 244.899 347.601 258.493 347.601 273.256C347.601 282.467 348.923 290.923 351.567 298.639C354.21 306.356 357.883 312.955 362.621 318.437C367.358 323.92 373.039 328.182 379.665 331.241C386.291 334.3 393.671 335.83 401.79 335.83Z" fill="black"/>
        <path d="M873.579 145.135H794.398L708.026 252.203H703.769L658.094 145.135H578.003L646.662 300.65L498.445 476.444H576.562L671.688 363.516H678.108L729.499 476.444H808.096L732.091 308.435L873.579 145.135Z" fill="black"/>
    </g>
    <defs>
        <clipPath id="clip0_99_18">
            <rect width="949" height="534" fill="white"/>
        </clipPath>
    </defs>
</svg>
